<svg width="100" height="91" viewBox="0 0 100 91" fill="none" xmlns="http://www.w3.org/2000/svg">
<path d="M23.5029 2.45464L16.7321 14.5355C16.6272 14.7557 16.5727 14.9977 16.5727 15.243C16.5727 15.4883 16.6272 15.7303 16.7321 15.9505L24.2503 29.3612C24.3826 29.5682 24.5598 29.7406 24.768 29.8647C24.9762 29.9888 25.2096 30.0613 25.4497 30.0763H40.4833C40.7238 30.0613 40.9576 29.9889 41.1663 29.8647C41.3749 29.7406 41.5527 29.5682 41.6856 29.3612L49.2039 15.9505C49.3102 15.728 49.3655 15.4834 49.3655 15.2354C49.3655 14.9874 49.3102 14.7428 49.2039 14.5203L41.6856 1.10962C41.5534 0.906959 41.3784 0.737677 41.1738 0.614382C40.9692 0.491086 40.7402 0.416961 40.504 0.397549H26.9888C26.2938 0.443351 25.6183 0.652581 25.014 1.00917C24.4097 1.36577 23.8928 1.86024 23.5029 2.45464V2.45464ZM72.3258 30.0519L57.3484 56.7637C57.1665 57.0462 56.9235 57.2814 56.6385 57.4508C56.3535 57.6203 56.0343 57.7195 55.7059 57.7405H25.751C25.4226 57.7195 25.1034 57.6203 24.8184 57.4508C24.5334 57.2814 24.2905 57.0462 24.1085 56.7637L9.13111 30.0398C8.98394 29.7365 8.90733 29.402 8.90733 29.063C8.90733 28.7239 8.98394 28.3894 9.13111 28.0861L13.5209 20.2473L21.2017 33.9409C21.4098 34.27 21.6902 34.5439 22.0202 34.7406C22.3502 34.9373 22.7205 35.0511 23.1012 35.073H42.8348C43.2154 35.0511 43.5857 34.9373 43.9157 34.7406C44.2457 34.5439 44.5261 34.27 44.7343 33.9409L54.604 16.3339C54.7759 15.9834 54.8654 15.5962 54.8654 15.2034C54.8654 14.8107 54.7759 14.4235 54.604 14.073L46.9233 0.379291H55.697C56.0258 0.400229 56.3454 0.499661 56.6304 0.669721C56.9155 0.83978 57.1583 1.07581 57.3395 1.35915L72.317 28.0801C72.4684 28.385 72.5481 28.7224 72.5496 29.0649C72.5512 29.4074 72.4745 29.7456 72.3258 30.0519ZM99.5038 47.7289L76.5295 88.7369C76.1402 89.3498 75.6166 89.8599 75.0009 90.2262C74.3851 90.5925 73.6945 90.8047 72.9846 90.8457H27.0154C26.3055 90.8047 25.6149 90.5925 24.9991 90.2262C24.3834 89.8599 23.8598 89.3498 23.4704 88.7369L0.487325 47.7289C0.166924 47.0755 0 46.3537 0 45.6216C0 44.8896 0.166924 44.1678 0.487325 43.5143L5.75454 34.1174L21.0274 61.3709C21.2846 61.7766 21.6311 62.1142 22.0386 62.3563C22.4461 62.5985 22.9032 62.7383 23.373 62.7646H58.0574C58.5271 62.7383 58.9843 62.5985 59.3918 62.3563C59.7993 62.1142 60.1457 61.7766 60.403 61.3709L77.7466 30.4262C77.9592 29.9943 78.07 29.5168 78.07 29.0325C78.07 28.5482 77.9592 28.0708 77.7466 27.6388L62.4768 0.397549H72.9846C73.6945 0.438587 74.3851 0.6508 75.0009 1.01709C75.6166 1.38337 76.1402 1.8935 76.5295 2.50638L99.5127 43.5143C99.8331 44.1678 100 44.8896 100 45.6216C100 46.3537 99.8331 47.0755 99.5127 47.7289H99.5038Z" fill="url(#paint0_linear_327_75)"/>
<defs>
<linearGradient id="paint0_linear_327_75" x1="25.0007" y1="1.01832" x2="77.259" y2="88.8827" gradientUnits="userSpaceOnUse">
<stop stop-color="#2F80ED"/>
<stop offset="0.33" stop-color="#2F80ED"/>
<stop offset="0.67" stop-color="#2F80ED"/>
<stop offset="1" stop-color="#2F80ED"/>
</linearGradient>
</defs>
</svg>
